<?xml version="1.0" encoding="utf-8"?>
<svg viewBox="0 0 2048 2048" style="shape-rendering:geometricPrecision; text-rendering:geometricPrecision; image-rendering:optimizeQuality; fill-rule:evenodd; clip-rule:evenodd" xmlns="http://www.w3.org/2000/svg">
  <defs>
    <style type="text/css">

    .fil0 {fill:none}
    .fil4 {fill:#039BE5}
    .fil1 {fill:#81D4FA}
    .fil2 {fill:#B3E5FC}
    .fil3 {fill:#039BE5;fill-rule:nonzero}
    .fil5 {fill:white;fill-rule:nonzero}

  </style>
  </defs>
  <g id="Layer_x0020_1">
    <rect class="fil0" width="2048" height="2048"/>
    <rect class="fil0" x="255.999" y="255.999" width="1536" height="1536"/>
    <path class="fil1" d="M1303.19 263.999l328.759 329.158 -269.982 0c-32.328,0 -58.7764,-26.4484 -58.7764,-58.7764l0 -270.382z"/>
    <path class="fil2" d="M454.851 263.999l848.395 0 0 268.747c0,33.228 27.1843,60.4111 60.4111,60.4111l268.344 0 0 814.843c0,22.0004 -17.9988,39.9992 -39.9992,39.9992l-1137.15 0c-22.0004,0 -39.9992,-17.9988 -39.9992,-39.9992l0 -1104c0,-22.0004 17.9988,-39.9992 39.9992,-39.9992z"/>
    <path class="fil3" d="M854.668 1022.85l0 -389.67c112.499,64.9489 225.023,129.854 337.519,194.805l-337.519 194.864z"/>
    <path class="fil4" d="M337.396 1226.19l1373.21 0c22.3748,0 42.7347,9.23387 57.5103,24.1075 14.7378,14.8358 23.8866,35.2382 23.8866,57.6189l0 394.353c0,22.3807 -9.15001,42.7819 -23.8866,57.6178 -14.7768,14.8736 -35.1366,24.1087 -57.5103,24.1087l-1373.21 0c-22.3725,0 -42.7347,-9.23505 -57.5115,-24.1087 -14.7366,-14.8335 -23.8855,-35.2347 -23.8855,-57.6178l0 -394.353c0,-22.3819 9.14883,-42.7831 23.8855,-57.6189 14.7744,-14.8736 35.1366,-24.1075 57.5115,-24.1075z"/>
    <text style="fill: rgb(255, 255, 255); font-family: Arial, sans-serif; font-size: 93.8px; font-weight: 700; white-space: pre;" transform="matrix(5.072058, 0, 0, 4.061428, -4202.867676, -4552.229492)" x="893.21" y="1524.09">MPEG</text>
  </g>
</svg>